<svg width="80" height="80" viewBox="0 0 80 80" fill="none" xmlns="http://www.w3.org/2000/svg">
  <defs>
    <linearGradient id="progressGradient" x1="0%" y1="0%" x2="100%" y2="100%">
      <stop offset="0%" style="stop-color:#06b6d4;stop-opacity:1" />
      <stop offset="100%" style="stop-color:#0891b2;stop-opacity:1" />
    </linearGradient>
  </defs>
  
  <!-- Background circle -->
  <circle cx="40" cy="40" r="35" fill="url(#progressGradient)"/>
  
  <!-- Progress chart -->
  <g transform="translate(20, 20)">
    <!-- Chart background -->
    <rect x="0" y="30" width="40" height="20" rx="10" fill="white" opacity="0.3"/>
    
    <!-- Progress bars -->
    <rect x="5" y="35" width="6" height="10" rx="3" fill="white" opacity="0.9"/>
    <rect x="13" y="30" width="6" height="15" rx="3" fill="white" opacity="0.9"/>
    <rect x="21" y="25" width="6" height="20" rx="3" fill="white" opacity="0.9"/>
    <rect x="29" y="20" width="6" height="25" rx="3" fill="white" opacity="0.9"/>
    
    <!-- Chart line -->
    <path d="M8 40 L16 35 L24 30 L32 25" stroke="white" stroke-width="2" fill="none" opacity="0.8"/>
    
    <!-- Data points -->
    <circle cx="8" cy="40" r="2" fill="white"/>
    <circle cx="16" cy="35" r="2" fill="white"/>
    <circle cx="24" cy="30" r="2" fill="white"/>
    <circle cx="32" cy="25" r="2" fill="white"/>
  </g>
  
  <!-- Arrow pointing up -->
  <g transform="translate(50, 15)">
    <path d="M0 10 L5 5 L10 10" stroke="white" stroke-width="2" fill="none"/>
    <path d="M5 5 L5 0" stroke="white" stroke-width="2"/>
  </g>
</svg>
