<svg width="80" height="80" viewBox="0 0 80 80" fill="none" xmlns="http://www.w3.org/2000/svg">
  <defs>
    <linearGradient id="vocabularyGradient" x1="0%" y1="0%" x2="100%" y2="100%">
      <stop offset="0%" style="stop-color:#8b5cf6;stop-opacity:1" />
      <stop offset="100%" style="stop-color:#7c3aed;stop-opacity:1" />
    </linearGradient>
  </defs>
  
  <!-- Background circle -->
  <circle cx="40" cy="40" r="35" fill="url(#vocabularyGradient)"/>
  
  <!-- Book -->
  <g transform="translate(25, 20)">
    <rect x="0" y="0" width="30" height="40" rx="4" fill="white" opacity="0.9"/>
    <rect x="2" y="2" width="26" height="36" rx="2" fill="#f3f4f6"/>
    
    <!-- Book pages -->
    <path d="M4 8 L26 8" stroke="#8b5cf6" stroke-width="1"/>
    <path d="M4 12 L26 12" stroke="#8b5cf6" stroke-width="1"/>
    <path d="M4 16 L26 16" stroke="#8b5cf6" stroke-width="1"/>
    <path d="M4 20 L26 20" stroke="#8b5cf6" stroke-width="1"/>
    <path d="M4 24 L26 24" stroke="#8b5cf6" stroke-width="1"/>
    <path d="M4 28 L26 28" stroke="#8b5cf6" stroke-width="1"/>
    <path d="M4 32 L26 32" stroke="#8b5cf6" stroke-width="1"/>
  </g>
  
  <!-- Floating words -->
  <g transform="translate(15, 15)">
    <rect x="0" y="0" width="12" height="6" rx="3" fill="white" opacity="0.8"/>
    <text x="6" y="4" text-anchor="middle" fill="#8b5cf6" font-family="Arial" font-size="4" font-weight="bold">CAT</text>
  </g>
  
  <g transform="translate(55, 25)">
    <rect x="0" y="0" width="12" height="6" rx="3" fill="white" opacity="0.8"/>
    <text x="6" y="4" text-anchor="middle" fill="#8b5cf6" font-family="Arial" font-size="4" font-weight="bold">DOG</text>
  </g>
  
  <g transform="translate(20, 50)">
    <rect x="0" y="0" width="12" height="6" rx="3" fill="white" opacity="0.8"/>
    <text x="6" y="4" text-anchor="middle" fill="#8b5cf6" font-family="Arial" font-size="4" font-weight="bold">RUN</text>
  </g>
</svg>
